<svg viewBox="0 0 800 230" xmlns="http://www.w3.org/2000/svg">
  <!-- Tree icon -->
  <g transform="translate(60, 40)">
    <!-- Leaves/droplets -->
    <ellipse cx="20" cy="25" rx="8" ry="12" fill="#F59E0B" transform="rotate(-20 20 25)"/>
    <ellipse cx="45" cy="20" rx="8" ry="12" fill="#F59E0B" transform="rotate(10 45 20)"/>
    <ellipse cx="70" cy="25" rx="8" ry="12" fill="#F59E0B" transform="rotate(20 70 25)"/>
    <ellipse cx="15" cy="55" rx="8" ry="12" fill="#F59E0B" transform="rotate(-30 15 55)"/>
    <ellipse cx="35" cy="50" rx="8" ry="12" fill="#F59E0B" transform="rotate(-10 35 50)"/>
    <ellipse cx="55" cy="50" rx="8" ry="12" fill="#F59E0B" transform="rotate(10 55 50)"/>
    <ellipse cx="75" cy="55" rx="8" ry="12" fill="#F59E0B" transform="rotate(30 75 55)"/>
    <!-- Top center droplet -->
    <ellipse cx="45" cy="10" rx="6" ry="10" fill="#F59E0B"/>
    
    <!-- Tree trunk/branch -->
    <path d="M 10 85 Q 20 75 30 80 Q 40 85 45 75 Q 50 85 60 80 Q 70 75 80 85 L 80 95 L 10 95 Z" fill="#F59E0B"/>
  </g>
  
  <!-- Text "rootly" -->
  <g transform="translate(200, 50)">
    <text x="0" y="80" font-family="Arial, sans-serif" font-size="120" font-weight="normal" fill="#F59E0B">rootly</text>
  </g>
</svg>