<svg width="280" height="80" viewBox="0 0 280 80" xmlns="http://www.w3.org/2000/svg">
  <!-- Official Rootly Logo Recreation -->
  
  <!-- Tree/Root Icon -->
  <g transform="translate(10, 20)">
    <!-- Tree with leaves/droplets -->
    <path d="M30 0 C30 0 25 8 20 8 C15 8 10 0 10 0 C10 0 5 8 0 8 C0 8 0 12 5 12 C10 12 10 20 10 20 L10 35 C10 35 5 35 5 40 C5 40 15 40 20 40 L20 20 C20 20 20 12 25 12 C30 12 30 8 30 8 C25 8 20 0 20 0" fill="#F59E0B"/>
    <circle cx="20" cy="5" r="3" fill="#F59E0B"/>
    <circle cx="10" cy="5" r="3" fill="#F59E0B"/>
    <circle cx="30" cy="5" r="3" fill="#F59E0B"/>
    <circle cx="5" cy="10" r="3" fill="#F59E0B"/>
    <circle cx="35" cy="10" r="3" fill="#F59E0B"/>
    <circle cx="15" cy="10" r="3" fill="#F59E0B"/>
    <circle cx="25" cy="10" r="3" fill="#F59E0B"/>
    <!-- Root system -->
    <path d="M10 35 C10 35 5 40 0 45 M20 35 C20 35 25 40 30 45 M15 35 L15 45" 
          stroke="#F59E0B" stroke-width="3" stroke-linecap="round" fill="none"/>
  </g>
  
  <!-- Text "rootly" -->
  <text x="60" y="55" font-family="-apple-system, BlinkMacSystemFont, 'Segoe UI', Roboto, Arial, sans-serif" 
        font-size="56" font-weight="600" fill="#F59E0B" letter-spacing="-1">rootly</text>
</svg>